<svg height="512pt" viewBox="0 -26 512 512" width="512pt" xmlns="http://www.w3.org/2000/svg"><g fill-rule="evenodd"><path d="m109.492188 158.984375c54.949218 0 99.492187 44.542969 99.492187 99.492187 0 18.910157-5.277344 36.589844-14.441406 51.644532h.003906l-85.054687 139.769531-85.054688-139.769531c-9.160156-15.054688-14.4375-32.734375-14.4375-51.644532 0-54.949218 44.542969-99.492187 99.492188-99.492187zm0 0" fill="#ff5d5d"/><path d="m445.441406 10c31.238282 0 56.558594 25.320312 56.558594 56.558594 0 10.75-3 20.800781-8.207031 29.359375l-48.351563 79.449219-48.347656-79.449219c-5.207031-8.558594-8.207031-18.609375-8.207031-29.359375 0-31.238282 25.320312-56.558594 56.554687-56.558594zm0 0" fill="#ff9696"/><path d="m109.492188 308.222656c27.398437 0 49.746093-22.347656 49.746093-49.746094 0-27.398437-22.347656-49.746093-49.746093-49.746093-27.398438 0-49.746094 22.347656-49.746094 49.746093 0 27.398438 22.347656 49.746094 49.746094 49.746094zm0 0" fill="#a0e557"/><path d="m445.441406 88.328125c11.992188 0 21.773438-9.78125 21.773438-21.769531 0-11.992188-9.78125-21.773438-21.773438-21.773438-11.988281 0-21.769531 9.78125-21.769531 21.773438 0 11.988281 9.78125 21.769531 21.769531 21.769531zm0 0" fill="#e5f8d2"/><path d="m218.984375 258.476562c0-60.375-49.117187-109.492187-109.492187-109.492187s-109.492188 49.117187-109.492188 109.492187c0 20.097657 5.496094 39.753907 15.894531 56.84375l21.734375 35.710938c2.867188 4.71875 9.019532 6.210938 13.738282 3.34375 4.71875-2.871094 6.214843-9.023438 3.34375-13.738281l-21.730469-35.710938c-8.492188-13.957031-12.980469-30.019531-12.980469-46.449219 0-49.347656 40.144531-89.492187 89.492188-89.492187 49.347656 0 89.492187 40.144531 89.492187 89.492187 0 16.429688-4.488281 32.492188-12.980469 46.449219l-76.511718 125.726563-13.1875-21.671875c-2.875-4.71875-9.027344-6.210938-13.742188-3.34375-4.71875 2.871093-6.214844 9.023437-3.34375 13.742187l21.730469 35.707032c1.8125 2.980468 5.050781 4.804687 8.542969 4.804687 3.488281 0 6.726562-1.820313 8.539062-4.804687l85.054688-139.765626c10.398437-17.089843 15.898437-36.746093 15.898437-56.84375zm0 0"/><path d="m445.441406 0c-36.699218 0-66.554687 29.855469-66.554687 66.558594 0 12.214844 3.339843 24.167968 9.664062 34.558594l48.351563 79.449218c1.8125 2.980469 5.050781 4.800782 8.539062 4.800782 3.492188 0 6.730469-1.816407 8.542969-4.800782l48.351563-79.449218c6.320312-10.390626 9.664062-22.34375 9.664062-34.558594 0-36.699219-29.855469-66.558594-66.558594-66.558594zm39.808594 90.71875-39.808594 65.414062-39.804687-65.414062c-4.417969-7.257812-6.75-15.613281-6.75-24.160156 0-25.671875 20.882812-46.558594 46.554687-46.558594s46.558594 20.886719 46.558594 46.558594c0 8.546875-2.335938 16.902344-6.75 24.160156zm0 0"/><path d="m109.492188 318.222656c32.945312 0 59.746093-26.800781 59.746093-59.746094 0-32.945312-26.800781-59.746093-59.746093-59.746093-32.941407 0-59.746094 26.800781-59.746094 59.746093 0 32.945313 26.804687 59.746094 59.746094 59.746094zm0-99.492187c21.914062 0 39.746093 17.828125 39.746093 39.746093 0 21.914063-17.832031 39.746094-39.746093 39.746094-21.917969 0-39.746094-17.832031-39.746094-39.746094 0-21.917968 17.828125-39.746093 39.746094-39.746093zm0 0"/><path d="m445.441406 34.785156c-17.515625 0-31.769531 14.253906-31.769531 31.773438 0 17.515625 14.253906 31.769531 31.769531 31.769531 17.519532 0 31.773438-14.253906 31.773438-31.769531 0-17.519532-14.253906-31.773438-31.773438-31.773438zm0 43.542969c-6.488281 0-11.769531-5.28125-11.769531-11.769531 0-6.492188 5.28125-11.773438 11.769531-11.773438 6.492188 0 11.773438 5.28125 11.773438 11.773438 0 6.488281-5.28125 11.769531-11.773438 11.769531zm0 0"/><path d="m442.289062 204.226562-107.160156 35.601563c-3.976562 1.320313-6.707031 4.976563-6.84375 9.160156-.136718 4.1875 2.347656 8.015625 6.226563 9.589844l37.835937 15.390625-84.765625 22.855469c-3.847656 1.039062-6.710937 4.257812-7.289062 8.199219-.582031 3.941406 1.230469 7.847656 4.613281 9.949218l51.003906 31.695313-99.96875 14.601562c-4.363281.636719-7.792968 4.058594-8.445312 8.417969-.648438 4.359375 1.628906 8.632812 5.613281 10.515625l51.644531 24.429687-133.625 35.59375c-5.335937 1.421876-8.511718 6.902344-7.089844 12.238282 1.191407 4.476562 5.234376 7.429687 9.65625 7.429687.851563 0 1.71875-.109375 2.582032-.339843l160.003906-42.621094c4.058594-1.082032 7.003906-4.578125 7.386719-8.757813.378906-4.179687-1.890625-8.152343-5.683594-9.945312l-46.40625-21.953125 94.28125-13.769532c4.15625-.605468 7.488281-3.746093 8.34375-7.855468.859375-4.109375-.941406-8.316406-4.507813-10.53125l-54.675781-33.980469 91.207031-24.589844c4.144532-1.121093 7.113282-4.757812 7.378907-9.042969.261719-4.285156-2.238281-8.261718-6.214844-9.875l-40.242187-16.367187 81.445312-27.058594c5.242188-1.742187 8.082031-7.402343 6.339844-12.640625-1.742188-5.246094-7.40625-8.085937-12.644532-6.339844zm0 0"/><path d="m66.964844 370.007812c-5.507813 0-10 4.488282-10 10 0 5.507813 4.492187 10 10 10 5.507812 0 10-4.492187 10-10 0-5.511718-4.492188-10-10-10zm0 0"/></g></svg>